<mxfile host="app.diagrams.net" modified="2021-07-31T03:09:38.781Z" agent="5.0 (Windows NT 10.0; Win64; x64) AppleWebKit/537.36 (KHTML, like Gecko) Chrome/92.0.4515.107 Safari/537.36" etag="93ci_Dd0p8uK0v_WwWti" version="14.9.3" type="github">
  <diagram id="YtVEYxjL5D6NvK2cdInF" name="Page-1">
    <mxGraphModel dx="1209" dy="626" grid="1" gridSize="10" guides="1" tooltips="1" connect="1" arrows="1" fold="1" page="1" pageScale="1" pageWidth="850" pageHeight="1100" math="0" shadow="0">
      <root>
        <mxCell id="0" />
        <mxCell id="1" parent="0" />
        <mxCell id="aWLQsyK2phNN8O1XYwSf-1" value="" style="shape=image;verticalLabelPosition=bottom;labelBackgroundColor=#ffffff;verticalAlign=top;aspect=fixed;imageAspect=0;image=data:image/png,iVBORw0KGgoAAAANSUhEUgAAAewAAAEbCAYAAAAYvbfBAAAgAElEQVR4Ae2995cc15Xnib9gW6R6dn/ds2Zmd3tmd2dmZ7btdk9bOnVLbaSWWu0kkqJIUaITCUOJoqco0IieIGgBGoAAAQIk4QkPECA8CEN4WwYo7x3q7vncrJeIiorMjKzKQmUmvnFOVmaFffF937jfd++778WkaVf/dzbtmt+waVdf/Lw27RvW29VhWoSAEBACQkAICIGJRaC3u9Nm3vFXNiku1s/f+ocS64mtG11dCAgBISAEhMAwBHq6OmxS1LOeds1X7MyhHcN20j9CQAgIASEgBITAxCNwUbCv+Yote/3+iS+RSiAEhIAQEAJCQAiMQCAj2Nd8xfCuO1sbRuygFUJACAgBISAEhMDEI5AV7DmPXz/xpVEJhIAQEAJCQAgIgUQEJuFZT73mK7Zj5buJO2ilEBACQkAICAEhMPEIZAT72ius/uTBiS+NSiAEhIAQEAJCQAgkIjBp2rVX2NRrr7Cebo27TkRIK4WAEBACQkAIlAECLtjTrr2yDIqiIggBISAEhIAQEAK5EJiEdy3BzgWP1gsBISAEhIAQKA8EJk29hpC4POzyqA6VQggIASEgBIRAMgKT8K6nXffV5K1aKwSEgBAQAkJACJQFAhnBvlaCXRa1oUIIASEgBISAEMiBgAQ7BzBaLQSEgBAQAkKgnBCYRP/1VHnY5VQnKosQEAJCQAgIgREIVL1gb/lsi/33v/k/2Le++ffW1Ng0AoByWkH5KCflpdws3d3dXu7m5ma7cOFCORVXZRECQkAICIFLiMAkEs7G28MeHBy0F1540YXovp//wnp7ei/ZLY6HYCOcn2/93G6//Q77nd/+Xb+v//Qf/7Ndf/0NtmrlqlHfX5Jgz3t/XsU0OC5ZpepCQkAICIHLEAEX7GnX/ea43vqpk6fsumu/5sLze7/7+7bvi33jer3oyUst2J2dnfbww4/4veAJ/8l/+1P75t99y66+6prsultu/pE1NBT/5jMJdrTm9FsICAEhIASiCEyadu1XbTwFG+/6rbdmuZjdcMON9h9+6/90wevv74+WY9x+l1KwuZeXX57h93LVX1xtO3fsNNaF5cTxE/adb/+Dbx9NJCFJsMO59S0EhIAQEAKXNwLjLtg1NTX2ja//tX8OHz5st976Y8PLPnhg+MtG8Ej/9m/+zr7+V9+ww4cO27PPPufh5v/pf/yf7fvfv952796dFcdi9o0Kdm1tnU2dOs0Fdfbst4fVfDRsT/g+KsRhx9OnTtu111znjY7169aH1cO+D315yP7bH/6x77N7127fNue9OX7NN9940++D++G+CKPTAKCfmiVJsENI/K47f+r7Re/96NGjfnwIy//LP/+r7d27d1h5iAi8/trrRgODiADf/M96LUJACAgBIVA5CIy7YCOMCEUQwXVr17lYPfbYL21gYCCLVBCr3/6vv+PiTv/wggUL3Rv/t//rv3Nx27Rxk+9fzL5Rwea4cH3EjUSusNTV1XmDIakxEfbZvGmz38u3vvX31tjQGFYP++7p6bG7777H90OoWYLoIuR/9Zdft5deetlmznzV/vzP/sL3Q7RpIIT7iiadhWODYId9iFRwPDjNnTPXfnrX3Y4rXQ90QbAgyqEsNBKeeeZZ+8GNN/l+kydPyTYUfGf9EQJCQAgIgbJGYFwFO4ggXt3JEycdCEQSsUS88LjDEoQIsaKPOITMEbL3577vwoZ3jggVs29csLl+8HAR77B8tPgjv0a8IRG28x0Xz+i26O/p05/wc/EdPY57xgMPy5rVa3y/733v+9ba2jrsvih39Ni4YIPTE088mcWpvb3d6Dtn/dIlS/3Y0FiK4gmuHIeHH64RyqNvISAEhIAQKF8ExlWwg8DFRTCI49NP/zrrZUdFGE82uoRQdBD5YvaNCzbnDdcnPE7GOiFpBBGvdcf2HdFLD/sd7ieI57CNkX9yCXb8OBos3FMYcha9ryCm8Wsm7RMuHa7LMVFPHxFP+rCfFiEgBISAEKgMBMZNsM+fP2//+N1/cqEImdRkU/P52nV/6R5e1PPOJ0TxbfH/o1DHtyUJdvD8Q/ib/nR+Bw8+er7o7zQh8SD+CGQ8JH4pBTuKA0PN+D/+CX3n0XvUbyEgBISAEChPBDKCfW3ph3UFLzbJs4uuC33bUYEhVBxd8nnYhfZNEmzC7CHb+/nnnjc+lIky51tCOQgnr/50deKuDFlD/ENjgJ3iXnI4cDw97GjDIY5RuL6+hYAQEAJCoHIQGBfBDv3U+ULM9GnjYQcvOyrYd9x+ZzaLmUlKyK5GUJP6egvtmyTYVE+4PmXkQzSAqEC+JSr0lDvfsK5ov/FECDb3Efqw7/7pPUYfd1gQc0RcHnZARN9CQAgIgfJHYFwEe8knSzzknS/ETIY4fdsIMd4uWddhWk5C6AjiL35xv/3NX/+t78MQqHiWOMcW2jeXYEevz3niw7xyVR1Jb8VOnDJRgs0QMMa+c38M/SJjnDrhdzQCkOtetV4ICAEhIATKB4FJTEs6rYQh8WgWdq6wcbj90HfMOO0D+w9kBXvtmrU2Y8Yr2XHY//xP/2LbPt+WHRsd9cYL7ZtLsCkD5/w//rffynr5oVyFvoudmnSiBJv7oIHBuGuGkyHcDJEjm5zGj+YmL1TT2i4EhIAQKB8ESi7Yo721qAgjsvmWYvbNdR7C22EGtngWe65jtF4ICAEhIASEwEQhcFkKNmJNo4AhVYSGL+Xc5hNV0bquEBACQkAIVDYCl51gb9+23f7hO9/18DDZ3vPnzc+G2iu7KlV6ISAEhIAQqGYELjvBZijVn/7Jn42Yn7yaK1n3JgSEgBAQApWPQNkI9qWCkkSrS/k+7kt1X7qOEBACQkAIVDcCl51gV3d16u6EgBAQAkKgWhGQYFdrzeq+hIAQEAJCoKoQkGBXVXXqZoSAEBACQqBaEZBgV2vN6r6EgBAQAkKgqhCQYFdVdepmhIAQEAJCoFoRkGBXa83qvoSAEBACQqCqEJBgV1V16maEgBAQAkKgWhGQYFdrzeq+hIAQEAJCoKoQkGBXVXXqZoSAEBACQqBaEZBgV2vN6r6EgBAQAkKgqhCQYFdVdepmhIAQEAJCoFoRkGBXa83qvoSAEBACQqCqEJBgV1V16maEgBAQAkKgWhGQYFdrzeq+hIAQEAJCoKoQkGBXVXXqZoSAEBACQqBaEZBgV2vN6r6EgBAQAkKgqhCQYFdVdepmhIAQEAJCoFoRkGBXa83qvoSAEBACQqCqEJBgV1V16maEgBAQAkKgWhGQYFdrzeq+hIAQEAJCoKoQkGBXVXXqZoSAEBACQqBaEZBgV2vN6r6EgBAQAkKgqhCQYFdVdepmhIAQEAJCoFoRkGCPQ80O2qBdGOiz/t4u6+1qs56OZutua7TutobIp9HXs539Lgz0j0NJdEohIASEgBCoFgQk2CWqycHBCzbQ32t9PR0uxF2t562zud46muuso7k2z6fO92N/hJ3jOQ/n0yIEciFAA6+vp9O6O1qsq7XBOlvgWq11NNVYR+PZzIffrGup933Yt7+nywYvDOQ6rdYLgWEIXOjvtd6udutub7bOlnMXORZ4xndTrfOvs/W879fb3SEHZBiKpftHgj1GLDF+A3091tfd7l60G85A5mA403431Tjx8cb78Lz7umVcx1g/1XT4hQsDGZFub8oYzyYag3UZkXbDGRHrwLmmGmvnN9u98VhnGNau9ibr7x3i1+BgNcGkexkLAoODNjjQbz1dbdbZct4bewhytjGYZNsC97KOSZ3zk+MRexqXckDGUikXj5VgX8Qi9S9C3jaYCXvjEePhOKGDkSzFd1ON4XX3e2u1z6/n101dSu1YLQhc9Kabh6I2MU+6WL65gcUI17tw98kjqhaqjOk+6MZDqLvaGr1xl23oFcsv9g8NxZZ662xtsJ7ONu8mHFMBdbBJsEdBAlqLkLu7vWl4CHI0xC50TFONX0dh8lFUVIUfErpZCGV790qSd1OIPwW2txPVaa637o5m74qhIarl8kEAJ4AoYV9PlzfePEJYgDPZLpeU+3W6512XaRwOdcnI+RgdxyTYReKGEaUfEGI7EcfBiI54IIZC5d7/qL7tImusAncnLDlkROk3dE8npXEcwZ20x8Hjlnrr6+3KhC8l3BVInOKLTPSmp6s9012Sliuj3Q+ONde6t608iuLriiMk2EXghlj3drcP9esk9BeOlshpjnPRPmeELymHlupFwPsQO1sv9hum4Ucp9ska1FYlDVUvvbJ3RtQuE/6uvZioWAoeFToH3X3tTTbQ35cti36kQ0CCnQ4n70POinUhQo7X9iHRphwKXaatuMraD4+H8HQ2yWe8uJTrvB4ir/MyUBYt1YkAibL0LQ8bVZCLE+OxvrnWr085tKRHQIJdAKuQYEZGrWfZjgd5iz1nc93F0GWB8mtzZSAAz1ysGT5DNnexnCjx/pSBoTzkamipLgTwbDNifYk96zhHGQ7W2pDJnaguiMftbiTYhaAlG7y/tyyM6DAj3lynJKFCdVdB2xmy1dPZWl48a66z3s5WdcFUEI/yFTUkmBGOHsuolrbzJ+3c8V3WcHqftZ8/NbbGJeHxtsbM0C9G32jJi4AEOy885kTyfp5LkVwWb4Hm+5/QZet5eUAF6q8SNg9euOARE/esx8iz9oYzhkFtbzwzNkMK97xPu87HfitvohKYlL+MJHoxvGq0YXC41Vp/zE7tW2u7V7xi+9bOtrNfbna+DXMm8tmtpG0konW1a86J/NXnWyXYeUDyDMqQ/JNEtIle11Tj4yaVcZmnEitgE8k/peqzbqk7avXHd1pbwxg9n8Btz5uoV9iyAnhUqIgM3RqLZ41Yn9m3zhZO/5a9d/+f2zv3/pEte+km51t7w+mxNRDp5uvpKnQLl/12CXYeCjDHt0/HF4xXGX7jZTMjmpbKRMDH85NkNkZuNZzebzuXvWxLX/yBLZtxs6189Se2+s27beOcB9wTGvX58bKH5gJQf3ZlcoxSU3ceCh9lBKfh5F7b++kb9sFj37C1s6faoS0LbPfKmbZ8xs32yXPft2PbP7HmmsNj4rH6swvzS4KdAyNCgExYcUnGwI7BWFM+yqmQZY6KLOPV9CkyTK8UyYyNZw/aZwset0+e+54L9IGNc23TvIft0zd/ajs+fm5MhtTFHg+ou0OjE8qYT7mKhm3wUPgokxnP7F9vWz98wpa9/EPb9P5DdmL3Chfn8yf22Jeb5tnG9+63FTN+ZDuXvmS1h7eOmmt0CTHTmkbA5KpJjcPOicxAb7f3EefzTOgnJOmCPsPx+HDuNKEmvGzKq6WyEMhkhTdlJuAZQ6MNjradO2H71r/jBvXLzfPt1N7VtvmDx2zj3Aft0GcfjNqIZvkvL7uyyBUpLTzDe/WJnlLyLPRXH9+5zDbPf9QjNpvmPeKCHE00a649Yqf2fGrr3rnXw+PbPvq1nTm4cdT92sw/rkhOpPJiP+VhxwAJ//b4dJC5h9cgpISADm6cazuWvmDbPn6m5J8v1syyMwc2FDS23jLtaAlF13eFIMDbtkrV5UKD8eTulbZ10RO26vU7bOvC6fbJC9fbZx88ZvVHtxfkUFaY8xh0pjB1L7tC8FUxMwjwAg5msUtTx+yDbWs8vd+ObvvY1rx5t3ez7Fj6ojWeOZB4DvY/f3KvizYh8i0fTrcTu1d6ghrCn/a6vl/wslV5iQhIsBNgIYTkL/TI099DOGjdOz/zUNCaWZNt49wHSv5Z/dY9HtKkvyhv/5C/KKRBYfGEuiznVYw+KEWXC5EehtngAS166rvuEX2++Glb+tJNtvbtaW5400RqChlWykqZtVQWAnitaXkGl5rOHHRH5L1f/Lktff4GO7J1kbXUHysovHjbZI5//Oy/2vxHv26nD6w3kiAL8Sq6nXJSXi3JCEiwE3DJZO3m9q4h4bGdS+39h69zkd67+k07tHl+yT87lrxgq1673ZbPuMXOHduZn/iMy9asQQm1WZ6rPEzJ+4XzNAqjhizXb8KT507sdh5+vvgpO/XFGh8fizdUc2iLbV30pC2bcYt9uel9a6k9kp9Debxrv77Pglbv8xKUJ6oqVRyBYnmGI0JY+937/tRmT/sDW//Oz4w+7DSeMvsc+XyxrZj5Y5s99Q9ctOnjpgGQi78j1vM8tIhj8XoM/0uwAxKR70ITWJw/vtv2fPq6LXjiW1bz5WfpyZhgEPF8Ws8dt9b6494fzu/wcGB0D6x/12ZN+T07e3BT/uv4pPqtkbvQz3JGgHB4KZLNmLxi3dvTbMeS5z1z9+Cm9128SRDa+P6Dtmv5DNv+8bO27OWbva9xzKIdks/KGVyVLYtAb5FJjTgGcGbJCzd4KHzeI1/L5kAQJscxIVdi37q3/bN//bt2dNtH2T7rzxc9ZR/88q+9P5shXwg2x40Q5gRbmN2nqdbfo529Cf3IIiDBzkJx8QdJXPk8n7rDW72/GiNYe3SbT1KB8I74pJi8ovnsIfeEEOSGU194UgfjHQlNtdQc9oclrWArXHmxDsv9V0/H2KcgbTr7pYe7GcpFxIdkH3Ip3vn5H9tLP/xfbN4jf+kNS7hFdi/92gUbfvkMKduaao38Di2VgQDTyxYz9hpO4VHTDXdw4/v25t3/rw/nQkxP71trHz3zz94VGLoAV791ty1/5UfZLjuGfCHYHM+HKE+xYXHKS7m1jERAgj0SE+sqEKqMCzZGcPeqV239nF9kP4TJ0wxxwJAyjvGT56/3vh+M7+7lM6zuyLbiBHsolJRwO1pVhgh0tY39xQsY1s/mP+reNZOlEPkhOYgJLWb+5N/bkhdvtMNbP/QM8rojn/uwHIZ70SDMejOFBDq+3fMl1MdYhpRKLJI7H7yPOl6PKf4n6geXGH/N8XDplVv/d+9mYQw2HwQbUWceAPZBsPHOR3O97DE+Wc+5xPu53FdKsBMYgBdRjIdNFi5DZzCW4XNo60JPBMqSMMcDsvLV2+zjZ//Fw5qI9/ZPnvPhOCf3rCpesJtqE+5Gq8oRAd6nno9jhXjD9oOb5tmHT37Hzh7c6F0qdKfQh7j4qe/avIe/5t53OA9ezvr37rOdy17y6STD+qK/aRg2i2flyKmkMo2FZ0mC/drt/5fVH9uRFeT9G94bF8EWx5JqU+OwE1Hx8Yp5koHiHjb9gmTp0p8dPiQCpQkFMRPVkhdutE9fv9P7HglpYlQJbxYVEveEIBnSxAotw5WFGoVphPTwloXuzRDG9DkBGs8YDT2SFBl/zTzP4Txt504a3vVnC37poc6wvuhvnoummjJEVEVKQmAsPJswwca5EceSqtPkYSfAUsiIxQW70P75tpMkRFiJviHC4UwpyUxCiH1Rgj3kwSfcjlaVIQLuXedpFObjTNjGBCnwJjrkD/E+su0jbwQS9QlJZuRX0HWzZeGvjO6acI6ivyXYZcim3EUaSxRHgp0b14naIsFOQL6QESulYOe7lgQ7oXKqZFW+ek+7LRMS/7bnSjCigOlJ+RDtYWgOs52F/moEm5yKLQsft+1LnrPaI59bzcHNPkIh7fWi+1VJNVT9bUTrrNjfQbA3vPcL72rZ+uF0m/nj37IvVr/l/9P9wtj/1+78j0ZonP/JxaEPm5EudNHAM3Ir0kQb4+Wr+soZxQ1KsBNAKzYkTvYkoWy849F+mISFmc0wrIG4EuyEyqmSVaXwsBHsD375N7Z31etGpAaPO3yYgQ8DSvKiT3F7/pRnkhPNWTt7iu1Z9ZpPsIKIM61p4FzBb3nYFcXAsXjY8GLx09/1LHCywle+dpu9e9+feGJZyBJfMfNWf3MX9ot1RHyY8IkuQUSc4YbMBAkXQ7SnIMcUEs/JMQl2AjSFhkHEPWzeZHNi13I7sGHOqD/0RzIzUBiDDamLEmwMqZKBEmqzPFflE2wMJaHtvJ8zB40xsAunf9NWv/lTY7a98PGhNjNusUVPfcfwiuqObncvh5czLHrqH9wIM33pnPv/wsfJFj2xhZIby5NUCaUai2DjPDDeGmeErhTmFGdsfxDrYd/vP+j5EcywR2OQzHImliI/h7HczAuAY5NWrOl71zISAQn2SEysnbfa5OlfjAt2KhLmyBLPd2yxgs1cz1oqAwFvFObgGIljJIfl+/CyBQwmXgxhcKaFDB+E/uyXm3yWKqaJXPbiD2z5yzcboc3Dny/yPuzVb9zl3g9zQEcbifn46NuG3o9dGSirlPl4VrCuh14qQ7dK7aEt3kDkrV0jRPv9B/1tXsd2LLFTQ9HGhb/6O/eqcWaIHDJFLt00aa6J7SW7XctIBCTYIzGxDiZOyTN2MS7YeEQYTYwfs/oQgqT/Bs+FyVDYRmuVfhy2sw6jWshQFi3YrRofm1CdZbnKX8aQQ7AJU+M9Rz+865phf3g6vDaT8a6EG+m7hkdwjXD4xnkP2ZrZU1zMefHH9k+e9fmdj+1a5iMYmKGPhsCeVa8a01Dy0pBURjQ0ODVGtiz5lKtQ/nKZHDxLqvfmmkPedQJHSIINHzxkhqAS+t4w9/5hXjb/s57G4aInv+MjXpgNLWPjTtueFTNt7VuTve876Zoj1jXX+psSc93T5bxegp1Q+51MalGEYDOUi8xbQkZMA4nxJCOX0BBJPiRpINa8wYb5wTG6+9e9XTDhpyjBbq71F9Qn3I5WlSEC3e28VjN5vnqyvpkiMvo5uv0TH6OPt8JYfTwd+qmDscvwa4XPbPbFmre8T5u3dzHTFA1Jf7PcprnG1JGEK5lIJRxb1HeTZqEqQzrlLFJXW1NeWxav+zP71jm3/MUxs6fagsf/1j769T+5QCPC9EXjSTOzXvjwVi84xQs/2JdGoTckG8/4ZCvr3/25bVnwuOHoxK+X+D+2rK0p5z1dzhsk2Am138Pr6HIYUwgW97AxiMd3L/f+QMiM8STp4viuZe71MEwLLxxhJySJJ0TYM/pe2STiFifYddbb1ZFwN1pVjgj4Kw/zcCzOB28UfvqGHdm22L5Y/abtXvHKsIlR2B/e4SGFY+FXU80hTzzjjUuEMl2s0xrO4FVHv5vrjPmptVQGAj2dbT6dbOBEoW/ebY3A8mrW0/vXebcK/zPLWfxYbBz2jn5uXjLD+H94yfz2hNGxe+vfpuvmQR9qGD8+5//+is32ygD4EpdSgp0AeF9fr3U0535/LJm3eMqLnv6uezCQk1A3BIasbQ2nnLAX1+33kDjGkzAk+4VQZk7SNp71UPrBDXMKv/yDkFfLOaPcWioDAd6sRs5BvlyJKDfigk0kh1cZMusUnjjfzLiX/f/odp84hVC4TyH5xk89m5x9o+ct6jc8a663gf6+ygBZpbT+3u7Mu7BThsXpvqOvefHT/+iz59E4XPv2vc61OFeI+nz65k/ds577wNXeRUOCI/aQBLMVr9xqa2dN8YTc+LE5/x/qcunr7VHtJSAgwU4AhVWdrcz1nDwHL6JMq3Lug1f795kDG9zrxvMu5YcJMBjnSAIH4xlzkpzwfWtDjjvR6nJFAI6lfU9xXLB54QLZt7wx7qNn/8UWPfltWzD9m/bhk9/2/xdO/5Yt/vU/GtngvH3JG5LnTxbMm8jJscazXlbKrKWyECj2fdiMJpj/2Net7ug296CXv3Krd6XEudE8FEkkIQ1HJLxpEM8asSbRkbH+hXJ1oufV+7Dzc0uCnQOfro5W84SNaDhw6DeJOoSLFvzyb3zcdei7xusp5YfEIuYZJ3EoTK4fJXf4jafW1alXa+aoyrJdTVjcvewEjoW6Dd9xwfbhMytfNRqLZISfPbDRfzOlLfkTvv7gJm/okeRI1Ceca7TfPA90F2mpLAS6OlrydvHF+cDIAyY/4dW+CDHiyzz0LbGXxiDE2EK6+3ysf+izfvte96x9Yp7648XxrqXeutr1NrhcDJNg50Cmf6DfOtsac5KN1mTNl5vdA17x6k9s2YxbSv4h85KHhociXysVr6dfYcocNVm+qwf6e4ciOTVZnmH8CCeGtyGFbxIV8ZZpxPHNqzKP71qePS5udEv9P5MJwTOFw8uXT7lK1k/3S8v51Fw5vnOZZ31v/uAx7+rjfeuM7YdvNBzjHxqIJ3at8EgO/KTPmnkp8tmsJH76hFUt503h8Fw1qZd/5ERm0AatM0/LFDIi2vQZQmD3cvB0SvghDE5fdxK5s+ua6zIt0sHBnPeiDWWKwOCgeVJQJPkMwSa7Gw86+mG0AcNnwof+a/oLszxI4aWPaV8SgTrbjOdCS4UhMDhone3p37/OyAIihZ889z3Pj2D44PIZN9unb9zlGeSMUBj+mW4MIWTiHkSerrxRca25zjrbmm1w8EKFAXzpiisPOw/WtPQ6WhtT9zOOiqRjMLTe39PWqBZpnjos903DvOyhxCB/+9uJ3Z6cSIJi0qeoaR7HwLHAaaJNlFVLZSLQ29NlHSm9bMZPMwfArKm/59Ee8nVIQps19fcTp15e9drttmHO/X4MDkzgTFHfnjh73iinltwISLBzY+NbujsZ4pU+m7coko7FkA5l7HZ1tJnJuy5Qi+W9uae7M9PHmDKT95JxDH46z2qNMmqpbASwFfmGq0Z5RZSHl3rsWfmqT9jDHOFMyBPdp6S/GXuNLdOSFwEJdl54zPuGO9tbUg+/KSmJ8wk6meHtzeq7LlB/lbCZECBJjm5My0m0GWJDlwuh8AsKU1YCl/KVsb+v19yW5ZkUKtgvkhiZNIXJUJjtjHHWZH+H7SX9hmdtzUb5tORHQIKdHx/f2tvbk0lAKxdj6gRvtN6ebnnXKeqvEnYZGOj32Z3SekAlNZg5GoaIdWdbkxqFlUCgFGUk/wCbQfJgofH/zWcPGZPtEBqnT5o8neh710vGP5IZh7r1lB9RuBIl2IUx8j26uzozoh1JECoZaXMYzMTzuxFtNMqjpboQ8Gze1sacU5Ym8qEY7hSxr4t1ayY/Qoa0unjW3dWR6c/OMc/EJeMZ1285L1tWBL0k2CnBGhwctK7OdtEHjPkAACAASURBVBft9hQhpfEgPdelNUo5KI+W6kOAREfq2OcZn4iIzlCfdfB6qg9h3RG2w3NzSEKbIFvmHj5iLVtWFCEl2EXA5UTv6vAw4SXtb3QjmglP0jqWWBdRaRW4a0a0h17acClFOyvWTdavqSErkDnpi4wN6erEljUWDI+X3PkYGtMvW5a+vsKeEuyARMpviN7T3eXjGrOvSBwvo8p53YjW+fW4rsQ6ZUVV8m6Dg5lkRxLRWi7NCIXMlJDnrLO9NZP8owhOJTMoVdmztqytOeNpj5cdi3bF0KXX3uJhcNmyVNU0bCcJ9jA40v/T19tr3bRQWxvGr8+RcFVrg4fAuZ6WywuBCwMDhheSCZHXW/t4GFTPBK/3qBHXIvlNy+WDQEhE8yFfHiKvM59xLCqyJfjtXTwt571BSOKb8iJGxzEJ9uhw8+zsgf5+Dyt1tbdeDJOXgNyE270h0N7iYs11NNZ6tBVV+cd5Zi9eENm9PidA7djCmB61qfV5zL0x0N6SGXFQ+VDpDkaJwMDAwFCOTnMmIa2lPjNh1GgbiU01meOxZS7UzRlbNjAwyhLqMBCQYJeAB/1Dws1YQhfaoZaqJ3QUIvyQ8fQ+8eZzmaSyIaHW6zJLUDlVcgrGQXvfdntrRrhbzmXGbTNqIRjHJK6xLnx83zoX/dAgZMiiQpNVQpIS3AY2J9O33ZwR2izPai+GzfPxjKigZ3/XDxPq/j69krUE1SPBLgWI4Ry8MMT7tzvafH5vT+hoJRNziLx8h4+Ler11tJ7PhDyZ67e91bp7uo3WrhYhkIQA4koDEZ4R2WHqXN6F7n3dbiwvvkgkk/9Qaz6qgX0YMjbUf8g5JNRJCGsdCGCDenp6rLOj3TnTGXjmjb5IhCfbGKz1txuyH44LIXaOly0rLZ/kYZcWz+zZIGpfX5+Ttru7y5MsOjvaXJT5Zhw16yE1+4nYWej0IyUCCO5wnnVbV1fXsE93d/cwjkmkU4Kr3bIIxDkGp6I84/84z7IH60dJEZBglxROnUwICAEhIASEwPggIMEeH1x1ViEgBISAEBACJUVAgl1SOHUyISAEhIAQEALjg4AEe3xw1VmFgBAQAkJACJQUAQl2SeHUyYSAEBACQkAIjA8CEuzxwVVnFQJCQAgIASFQUgQk2CWFUycTAkJACAgBITA+CEiwxwdXnVUICAEhIASEQEkRkGCXFE6dTAgIASEgBITA+CAgwR4fXHVWISAEhIAQEAIlRUCCXVI4dTIhIASEgBAQAuODgAR7fHDVWYWAEBACQkAIlBQBCXZJ4dTJhIAQEAJCQAiMDwIS7PHB1d9m09LSYhcuXBinK+i05YhAb2+vUe+8vlKLEBACQqCUCFSdYGMw161bZ1OnTrUbbrjBrr/+ervrrrts8eLFLqKlBC96rkWLFtljjz2WvQb/33333dbc3Oy7IdynT582yldoYd8dO3bYQw89ZDfeeKPfw2233WZvv/129nyFzjHa7fH7GO15yuU4sNy8ebP97Gc/y2IJH+bNm5etq1KWddu2bXbrrbfasWPHSnnakpyLhgQ4vPDCC1X1OteGhoZxfy5KUgEpT/Lyyy8bn1xLJTyjPAdR+5frXrS+OASqSrA7OzvtiSeesClTptiWLVusra3N2tvb7csvv7Snn356mKAWB1PhveMPEe+LjXrYaQmMZ/b6668bAr169Wo3RNzXqVOn7NVXX/V7w0CN1xK/j/G6zqU4L+9+pqF2xx13uGiDIw2mEydOOB8eeOAB50cpy1LOHvbGjRvtxz/+sTdg4VM1LDSIEQaer2pZJNjVUpOlv4+qEmzEZvLkyXbu3LkRSGG8EfDxWgoJXVrBpqGBWB8+fDixqNwD9zJeS6H7GK/rjsd5aTDBh/Xr1484PRiOZ8NnxAUneAWNlYcfftiWL19ub775ps2aNWtceXSpbleCfamQLu46ae1dcWfV3lUj2AjZvffeawhOoQXvl/D1ypUr3XDddNNN2RAURvz555831hGOfvTRR+3s2bPDTklom/Vsv/nmm23OnDk2f/78YR58EL7GxkZfT2g++knyCPDOnnzySZsxY0YqY4o3/vHHH7vAE/4n3Pn5558P8zgwaOBCWPi5557zMgeM0tzHsBuvsH+CMacRVGgphCV1M336dBe7eIMJzxWMaSDEDRVYP/PMM75+2rRp7uHSIFuxYsWwOu7u7rbZs2c7n6hLukP27ds3rC65h+PHj2e7SgI/qcdCy65du+znP/+5l/HQoUNGWerr60ccRhcC90O3AXyF30R2wJIlzfZVq1Zlj+deeTbALyzh2eA5DEuoq/BcBN7C59dee805Tll4bnmmWDhP9Jnid75QcrhWuX+PxsPGSSGKGOwW/IErYQl4Ygewb3feeWfWdrHtxRdfzK6jMQcfwxKvc+oUu5MvTyP+HIRzRb85byGusP/+/fvdtvFccO1ly5Z5eUNdB3vOueAa93bLLbf4MVEMoteu1N9VI9iEOW+//Xbbu3dvwboIFUyodNOmTW44BwYG3BBgeOfOneuEhZCQgNApxpiFUCKEeOONN3wdxP7www897Brvw47+n4bAwSOkIVFoQTQI995zzz22e/du6+vrs5MnT9ojjzxiP/jBD7IhwmAI6Saga4CFe017H4XKUc7buU+6F37yk5949wJeZtKSFkuEjPBrVOiCkGNEWOL1jKggNJQjiNbBgwdd0BBOFniGKN53331uZPn/6NGj7hFjeIKIwQ/4uXDhQj+G8xE9gK/xRoSfeOgP+z311FPeb8+qUGbKFl9CA5AcCjjV1NTkDYk9e/b4rvm2x3HkOhhM7ov7CwY+rWCDdZS3nA8jHe2DD/wOGMXvpxL/L1awEWsaYMEmwXNsEnbqyJEjDkHAiUZ9bW2trztz5ozbjyjGnIv/6Y4LC3XOOuqSOob/OCz57FT8OQjnCt9puUL5uQ/uh/uii5MGBc9FXLCj9pzGwIIFC7xxm+u5D2WppO+qEWySfHjA0yT7BMF+9tlnhyXfYEjwojAMYeE3/eLBIJCsROs1SgKEASMSFei4USpEYK4XHqpwrVCGpG+8DMK9iEh0QQSiRj6ckyhAdEl7H9FjKvE3Dy5eRUhC5OHHY4MnQeTSYkmdE1aOYh73VuP1DA9oVAWvEAwD/zCELJQFjzYIeMAZrzja+KJRCseDEQ77FfrmvHAl2m8d9bjD8ZSRsq5ZsyasGvadZnsuTnJ/4dmMPxtcJPA0cD/8z77Rhe1cIzSgw37huOi+lfobIYpHDuL/x21NLpsUonUBpyiePT099vjjj7u3Gp4FMIs2GKhznh34El34/1e/+lXOxM34cxA9lt+ctxBXKBPljzbQOJbnkPuNC3a413At+AafeW6qZakawR6Nhx0lLxWa70EJ+7LPzJkzR9Q/2+MPUfT/QgTmhMV42LnIGB7MYMDi/4eCp72PsH81fNP4QrRooZN8hdeL15cWSzDAkw6NOgwK/cF8gsGL13OcF5wjCHbgFMdERShgjSdDAyPUJWUNCYncA9GkaOMyHBf9pjEJX6NlZHtofET798EhX6M3zfYkAxnnYBIm8X3i/4d7iuOba7+wfyV+82ziTHBvSR8iKlHbkuZZzoUTxwYeBqxYx4eFOmfUQ7zBwP9whfMmLfF6iu+T5pkLz0lo2EbPES1j2C9+H4X4Gj1fpfyuGsHu6Ojw0HW80pIqIlcFQ4IkMY6eI9c+cSMU/78QgbkGxpUHNd5SjF4//E5DePbN96Am3Wu83OF61fb9xRdfuBiCY1oswQARJfyI1xr9HfCJ13MSnnH+cUwaweYaNAzIqSB5DKONMc0XmqSBQr9fksFlXdQzK2Tg0myXYAcmjP47KkZJZ4lzKo1NymcHOF90iV4/17MR3T/pd/w5iO+T67zRcobnRIJ9Eb2qEWxuCeJh+HJliYc+tECEOFH5P2rALsJ08Rf7BA8rrA2hm2irl/2i/xcicDhXoSzx4FEhFrRwOW90QUiSQuLx/dLeR/Tclfabegl1Hi87YWXwIzKTFkvOwTmDV7106dIRXIjXc5wHnCPOP4xXmpB4/B74n/A1/dpJIyAoK94YXTo8ExjD6Ic+SRofIdyZK0wZrptme1L4FE5GQ+I0MMgLoZEdFjCg8RF4GjXcYR++4/jm2i96TKX9jgpmUtnjnEp6lkM3XWj858KJa3F8dIlev1CdR4+L/o7XU3QbvzlvIa7E7yGcI1dIPH4fcCpfxCicr5K+q0qwqUiME5WE8AXjhFEmUzcIaNxghgqLJm+Q3ED/J94MCTOh/y8kZYTEH/ahTxORDOfnfPGHCvKQFLdhwwY32EF4w7XDdwh7ErIl4Q1icx81NTWeVIKBJZMdY0xYlAYKCUqUA+GhDGRTFjJ8ae8jlKsSv0muIVmG7GvwA3M+Bw4c8EQoErH4Py2WAYMgQPAsiF3YFjdUcR6wX5x/1HmapDME9p133nHxpcyUPR4eDeXgGz7Aj3gZo/uQyxAaoJwzJDKSZAan6KaB60Qk0m4PCUocTx2QoBRNOgM/vH6eBRLb2Cctb+P4BixfeeUVT0ji/0pfooKZdC9xTgW7BRdIgoUXNIqSks6CXQjnLSTYSXUOxoWSHeP1FK4XvsN5C3EFHoYoEvfF/cFZcjsoO0vggAQ7oFtB31RqfKYziPvuu+96xearYLZFh3URMsQzwJPivGFBxMOwLoZRIJxxwxl/qCAoQ3kgH8Nx8hlRDF18pjMEHKMXHTtMmT766CM3fmFYV8hkDg9mrpY195LmPsI9V+o3eJE9CwdCWDipTtNgGTBgX0QuKRoTN1RxHnCOJAODIUoa1kWIeefOnX5pGpHwONwL3GMoDwY7aaG/PamM0X1piNLwoBHDAveiQ22ShnUVsx1hjg/r4lkgC5msXuqERmha3sbxpcwhUsC5SCis9KVYweZ+4UChYV3Uc7ALAaNCgs1+cIL64bkBY3jH8NN8wwm5Tnje4t/BsYlzLRdXaCyS3R6GdREiZ2iaBDvUor6FgBCYcATwkAl3V1OW64SDqgIIgQpGoKpC4hVcDyr6ZY4AY+jxckNIl1A0k1nkGzpzmUOm2xcClx0CEuzLrsp1w+WIAN0T9KkTgiaEyDfjT+nS0CIEhIAQAAEJtnggBISAEBACQqACEJBgV0AlqYhCQAgIASEgBCZNufZKm3rtV4WEEBACQkAICAEhUMYITJp87RWGaGsRAkJACAgBISAEyhcBCXb51o1KJgSEgBAQAkIgi4AEOwuFfggBISAEhIAQKF8EJNjlWzcqmRAQAkJACAiBLAIS7CwU+iEEhIAQEAJCoHwRkGCXb92oZEJACAgBISAEsghIsLNQ6IcQEAJCQAgIgfJFQIJdvnWjkgkBISAEhIAQyCIgwc5CoR9CQAgIASEgBMoXAQl2+daNSiYEhIAQEAJCIIvApCnXXWlTr9PUpFlE9EMICAEhIASEQBkiIMEuw0pRkYSAEBACQkAIxBGQYMcR0f9CQAgIASEgBMoQAQl2GVaKiiQEhIAQEAJCII6ABDuOiP4XAkJACAgBIVCGCEiwy7BSVCQhIASEgBAQAnEEJNhxRPS/EBACQkAICIEyRECCXYaVoiIJASEgBISAEIgjIMGOI6L/hYAQEAJCQAiUIQIS7DKsFBVJCAgBISAEhEAcAQl2HBH9LwSEgBAQAkKgDBGQYJdhpahIQkAICAEhIATiCEiw44jofyEgBISAEBACZYiABLsMK0VFEgJCQAgIASEQR0CCHUdE/wsBISAEhIAQKEMEJNjjUCmDNmgXBvqsv7fLervarKej2brbGq27rSHyafT1bGe/CwP941ASnbJaEYAvWX61N1lX6znrbKmzjqYa62g8m/k01fi6rrbz1tPe5Fwc6O22wQsD1QqL7qvECFzo77X+nk7r7Wx12wXHOptrL/IMjjXXOf+62xt9P9mzEldC5HQS7AgYY/k5OHjBBvp7ra+nw4W4q/W8dTbXW0dznXVA8JwfHoB6Y3+EneM5D+fTIgSiCDjHeruttwvj2WidLUP8aooY0CDW4RsB9w8crLPO1nPmhrWr1Qb6ejLiPTgYvYx+X84IDA45Gz2dGUcDO9ZS76Kc4VHg01DDMMuvzHrEm/1xTno7W7LOCE6MlrEjIMEeI4Z4Kxi+vu72i0Y06uUEw5nm2z0iyN5ofXjeffKGxlg9VXF48KbhBA27DgQ6DZ/y7dNc6zxD/OURVQVNxnwT2ahgZ4t1tZwbauhFIjb5+BTfNiTk8NWFu6fTo45jLuRlfgIJ9igI4K1Fb4n2W393h3W1NmQ86Dhpx/J/U40bZ87Pg2SDXFWt1FFUV8UeQn1T9zQGMxGbEgh1lJMRo8o1uJY4VrF0GXXBQ3SQxptHbUbrcES5FflNCJ3zcn6PHl5Q9HC0lSXBHgVyEBzjRgh7WJ9hhKRj9oDCuZpqrLu9SWHyUdRTxR5C42yIY11tDePPMbhGdKf1nPOMxqGWywMBeEaEZTyEOskG0gdO5PDChQE1DkdBMQl2kaA5wXsyBB+WfBEEdjy+h0Ll/T1d6tsusr4qcXcPgXd3XDIjmjWsQzwjj0KJaZXInOLK7NGbrrZMns1QtCXLhfGwY6Fh2FznUSMl2hZXX+wtwS4CM8S6t7vdOkj2KXHYqOCD4sb0nPV1d0i0i6izStt1cKDfM20vlcczgndDos3oBcqipToRQCzJ/Pak2ImwZc11fn2JdnH8kmCnxWtw8KJYj1frs9B5h0SbRoPClmkrrnL2w6tFKDua6saeVFaIS4W2N0UMqkLklUOiQiUdyr3x/mpGsBTiwThuJ6OccnjDUBwrVHO+XYJdACZPwhkctP7e7kxrdBwJnPrhIaTUq/B4gaqrrM2hQTjBRjTKQbz8vq52RXQqi0l5S+tRwq62zDCtsrBltd5IVRdM3mrLbpRgZ6HI8YMWaX/vmAne3njG2s+fsrZzJ6z13HH/5n/WR41k6t/NdUoQylFllbaaRiHZsxMWBs9luIfC48oerzRG5SjvIDzryYxoudRh8DwcY44KnxNAc0/kqLiLqyXYF7FI/EUfS1db45j6rBHlptrDdnT7J7Z7xSu2/ZPnbO+q1+3YrmXWVHNodIKNMW09nxnylVhyrawUBBBEMrQveV5ELiMaXc/wwrYG8axSyJSnnN4oLEeeDQ1hpXxa8iMgwc6DD2Ld44kZoxv/2nb+pNUe3WY7l71sK2b+2Fa/cZetf/fntmHO/bbunZ/Zp2/c5Z89K2Za7ZHPixfuphrrITlIU03mqcXy3pTlWLl4PFGxDr8ZWtjRoulzy5tKeUtX7jxrbzzrtpZyasmNgAQ7NzZD4xPPFS+kjWcNsT6xZ5Vt+XC6rXrtdlsza4ptX/Kc7d/wnn25aZ7tW/e27VjyvH365k99+7aPfm01h7ZYe0NxIXK8bMY1aqlABDw3giGCo+NYtPuk8cwBO7XnU9u3/h3bs/JV27d2tp3cs8rqj263s19utgMb59qeVa/ZF6vfsiPbPrL6YzuK43VLvT8PFYiyigzPejpLwrMo50r9myma+3o7VV95EJBg5wCH5Ay8Clp+oyFm3dHtLtaLn/5H27roSTt3Yrf3YcfPdWb/ets07xFbPuNmQ7Rbao8UJdqUj3JSXi2VhQCRke4xTr5DdwuNwy83z/fozeKnv2vzHvlL+/CJv7e1s6fato+fsa2LnrCPn/uezX/s6/bBr/7Woz10zSDy5FHEOZn0P3MO9OBlK5pTWSQz8whcV3uTtZdzFAc765GcZnEsD8Mk2DnA4a1GeK9JxqvQOozorhWv2MrXbrOtHz6RPQfr2xtOu4HFyHrSWcMZazx70HYtn2Hzf/kNO3Ngg7XWH88eU+habKeclFdLZSFAok1nC3ODj3K+5qFIDt7yoie/bZ++fqdHdWgcHt3+sX30zD/brCm/a4ue+gf3qs8d32Un937q3TEfPPYN97gR7TQcc54117unVlkoq7QZno09ipOWJ2PZT152fr5KsHPggzfBOMFiyYconz+5170Y+qhrvtycPQfG8fDWD93rIRx+YN071nDqCxfxE7tX2JpZk23T+w/ZuWM7s8ekuT7lpLxaKguBns6WMc9BD6c2z3/E8yIObVlgzbVHvEHYXHPYju9aZoc++8BD5SQ30khsqTvqofItC39lS164weqObkvPtaZao8xaKguBTBRndHk4aexPSffxSE5zZQF8CUsrwU4Am/Cyv9BjFJ4PHjR9h+5dL3rCWuuPZQ0i4rx//bueaLb41//o/YyNp/f79oaTe23vp2/Y+w9eY6f3r8sek+ph8CzLBoXFE+qyXFcRDh9tBCfKifMn9tiyoe6Uswc2DuMN4swHoY4fs3f1mzbvka9ZzZefDdsW3S/pNxEBJQaVK6tGlivLszy2jLyZlvpjdmzHEh/BQmLs6rfuLvihy2XrwukevYlzLIk7qdYNTQ4ljo2sS9ZIsBNwYXiBT9k3iv5rBJuEn3Xv3OvfUZLiDeH10Ge9cPo37fiu5e4RsQ/js4/vXm4zf/Lv7cSuFUUZUb8G47L7ehLuRqvKEQG6MHyK21FwLMopGoEY180fPOYNxei2XL8ZkbBjyQu24PG/9UTHXPslrm+uU/JZORIqR5mcZ3kihXTL0YWCs7Bx7gO28tWf2NIXf2BLXrgx1WfZSzfZ6rfusRO7V2ZtWSJviuF5kziWozol2EnAMJRrNOFwiMoDwDhrhm4RjoySt+H0Pju1b619seYtW//efR46b2u4mPRz5uBGe+mWf+vjs6PHpfpNKKmzNel2tK4MESBRcLSNwigfCHWT/c1IhL2r3xgW0YnuF37ToDzy+WI3smtnTzH6tcO2VN/NdZ7kWIaQqkgJCBTiGQ0+7NF7v/gzW/nqbXZgw3tG1CbKBbpXyLOJ59Y01xyyg5vet49+/U/eaDy1d7VPChU9dlS/xbGEmsyskoedAE0mHD66Ph8Em2E1G969zw6sf28Y8WmFfrbgl95PTXIZ+0YJTUjz5R/9u1ELNhO8aKkMBMbCsShnEGAagp+8cL17R0e3fTyMU9F9+U0XDBz84PG/sbNfbirewDbVendRZaCsUhbq2mOY6fsPX+eJiLWHt3r3SXxoKd0njDaIR/7I12kmJ2Lvapv7wFUeVTz9xZq8/IvzMfF/D4ufV+UlICDBTgCli3Gxefp8Ekk2FPLBgDKjGWHKncteGkZe+hN3r5xpG+b8wsfHsm84F+HyAxvm2Ds//2MbFekpb0t9wt1oVTkiUKo3vvnIg/OnjIQzvOxlL//QEG2mvw3c4huukU2+ed7Dvh+jEsiviBvn6DGJv4emKy1HTFWmkQjAs1xDU2sObrbPFz/t+TbMAUG3XFKd71j6ojsZJMzGt8MfPPCDG+bYx8/+i+9XbF5E/JzYXqbp1TISAQn2SEyso6l29ILdeMY9HjLECXvHM75PH1jvQ7i2f/zssPAlHjcZ4iRyMNnFCBIX6gNCsJtqE+5Gq8oRAeZPHm2jMIkbhCz3b3jX1sy6xz1tJkrB82bfprNfemIQfZRM1IMBLnrilCj/msWzcuRUUpny8Wz/und8KODqWfe4c4GDkfShP5uhgXShJG2HT4z1J6TOjI6Mdtk45wGfV4JZHOEi0cXzx3ens2vYMnEsqTrVh52ECpNEjNWYhlnMdi1/edhkKHg1ZJHTsg0Z5Ig6DwLDbPDOabEmGeW862iViuRJ1VmW68bKryQuMOnOka2LjEQgDCeJRCf2rPRJVRijzXo8axqHRHSI+ESjPEnnTFzXVFOWmKpQIxHIxzO6RhirzxA/RrXk+uA5s9+yl2/OuQ/HwjdC53CPY5bNuMVWvX6HrX17mm2e/6hzj0gQHjhcTeRWaBiKYyMrU1niiZjkJ1IgVIFv5hDfsuBxF2FIiihDUpLM+Ka/qPnsIZ9rnElWmOlsxcxbRwzByUvqhDIk35HWlhsCxdZr2v1pBDIs8JPnvucjEZa8eKMbTiZKOb5zqZ099JmPTiAhkoZjS83h4sPijWfLDU6VJwcCuXjDMCy67T55/vtWd+Rzz5vhZURj+RDJCdcjvE4SLQmOJOES2WEWvrkPXp3J4dm3rqCty3FLl/VqhcQTqj+QbqzfTDvKmMbX7/rPtnHugz6ki9Al56WP8djOpbZ8xi0256FrfGw2Gbv0SY7lugm3o1VliMBY6jjfsfAHY0xyGS+d2fDeL9xgMp84Qr78lR/Z+w9dawunf8vH/DMjWkFvRw3DMmRQuiLl4gpRltVv3u3JZiS/IrBj/UTzIQIPsXNEDJvOHPQRCUwQxbS5DG09e3BTXluX7g4vr70k2An1XYqQOA8K3g6t10zf4mQf/jD/0b+yOQ9c5UaT1u2qN+70FzKc+mKNt0bpD8LzibZWcz10SesTbkeryhCBfKHKpHpNWgdHTu9b67whFB7/hJeAML6f/UIUB4+Hl8+seOVW+2zB4x4iTzp/znUKV5Yho5KLlItnzAGx7u1pHg7PWc8JDbWx7Ev3C43DHZ9kXnpE9nnO84ljiRUqwU6AxRM1SkRWWq941cwihJHcvXyGv6ULYUbIWX/480XuBdH3w/htF/E1s3ycdk5Cx8unRI2EmizfVcVwLDT8yNJlzDWe886lL9nni57yxEaiN5veH/kh6RE+kWxGItCSF673IYd0z9Qc3urZ4hvff9BoLIpn5cuVsZQsV9IZjTuGnm7/5Nls3TP+Go7BL+wTY6yZVKWYWcywdTgcjIahPxubR2g85OvgedN4pM+bvvNE3smW5axyCXYCNKMZckPrMRpSqj+6w4lLyDHpg1B7mHLfWn+bF94PGeJMXUqYnFA6CWiJhI6LNf87yesS7karyhEBhq3k8n7idc583yT0MPKAkDZv3SJSQyIQyWQkD21Z+PiID8MHeSnIrCm/58dwDoxyw+n9dnDjXA9N0gAoavIUeKYhN+VIqcQy5eKZv93tvfts17KXPIcBQeXVMPzOWgAAF/JJREFUq3jdPtPZ89d7whjCC//SJCdi/7B1m+Y97NEcEs/Iy/l88VOe/BjmnSDqyBBEEtHiXOd/H4bWLFuWVKES7ARUfLIBMsWThDG2DqLTCqW/2hM2di71pB5eX4iH8+nrd4z4rHz9dn8YGBPLUAlC42HmM0hNhjke0Z5PX09VBi8nhrT1XMLdaFU5IlDMxCkk7sAHeIJBpEFHNAbvJc5RDCucpN+w7vBWb/gh8EyXyzqM6oGNjJn9Vxdxxt/Gz5H3f02cUo50ylmmXBOnkHSIzcHWMFrg7MGN3rhDRIm48FY3+pnn3P/nHtVhRj1sU74Pw1GZkpnRCMd3r/DhqUSCGBLG9KX0Y7edO5mdp2L7kueSuaeJU3LWpwQ7ARpmDEsbsmQ6vjVvT7V3f/Fn9tod/7d/3pr8O56lC/kJgcc/O5e84Elob/70v9ibd/9Xb2nyhi+MLf2SvEOb4RBk9eY1ntHGQ3Otv1s54Xa0qgwR6GpvTj01KSMKPvvgMVv01HdcdBmaRQRm76qRDTqiNnjWHz7xLZvzwF/4KAU8a8SapCD6DT958QZfz5wA8ekmC/Ktuc4ou5bKQCAXzwhbr3vnZ+5R423TAIRTOB0kivEhGkMjkcbiF2tmuQgjxLk+jL32fVe/5Y1GQunYs03zH/Ex2kQPD322wLPFyVDPOSufOJaTXBLsBGh6uztSG1NaqpAPsuMR8xYufuMVEWpkrt7wYbIKMiOPbf/Y35M9e9of2NYPp/srOPGKGHLDTFVMwP/lpnluZAsa0CDazXXW192ZcDdaVY4IFMMxPCBe1sHQLDwd97hnT/FQeJwfhLvJiSDCs2PJcz6fPYYXzxqxhl8MsaGvsvX8ieKHdLXUi2flSKgcZXKeNY18TTDeLt4vQk03C540r2mNZm7DmaUv/9BHFBAmp0sm3+eDX/61h7rpH4/ycuuiJ23hE3/vLxNhchXsGzOjhTcVRvf137JlOWpTb+tKBObChQHraK4fRroRpBoSSsJHkJDEHjwhwkwINokV8WMObV3onhL9jjwojNPmAeEdxif2furHLn3pJmN+Xzzu+PE5//d+xXNGubVUBgK8PrCj+VzqOiakTX80w2LwovFkEF6MapQXRGmY35nkHyZHoSGIiBMGx7PmmIOb5o2YujR6jry/W84Zr2zUUhkIZHiWnC/BMD+cDJ845dWfuB07vGWhR13gFW91Q2jJr+FtcCSR5fv4TGev3Gphsih4hLOCTSRqyEyOHI+Tk9O+DdkycSyZX/Kwk3ExD4szRWnwYHN8YxhJoGBKSDxqQkdLnv++e0HxY5lAhTA5yWUMpyFblzfeMMSC/iJasRhmDG382Lz/N9dap178kaMmy3d1V3tTZhrcHNyK1vmRbR95Zi0GD4+ZBiKGtO7odg874nmP+Jw56P2ILtYvXO9hcPesY/OMR6+T93dzrVFmLZWFQKEuPhp1OB7kNdCdgp2Cb3Btwa/+zpPRmGAnLzcaz3pjkj5shJu3fp3cvTL7Jjm6dHJ61FH+N8mW5WOXBDsHOoSSOnkJSJRMOX4zdIawOIkbZECSwbtv/Tt5w41hYgEeFMSejEpauyGTMs11wz6dzfXW092e4060ulwR6O1qN+ou1GO+b5Ia8YTwkPF8MKYkn5HFS+SGMHj8g1DTT8mbuZhlyofXnB/ukee75rBtQ4lAfT1d5QqnypUDAWxDGp4RIn//wWts5m3/wd6657d9wie6YooZRUCD8JPnvu9vHZw15XfttTv/k2eN45wM41MOW0pkUxzLUZGamjQ3MIM26F5rGpIRAiLbG++Y1iqkx5C21B/LSVKEGRIvef56T1Cjf3E0Yk35aEEPDl7IfTPaUpYI0IXR1dbkc8AX4hkhRDhCXyNvc+PNbkw/Onvq73sfI94Rr9iMfuivZpgOE6gg8iQSRWejKnTNYdsRbHimcHhZcilfoeAZdVdoGCFdJz4Rz7bF7mHTSMQrLmYcNsmNzBVOQhkNSbLNPYfi/MmctjDwrN1HujSIY3kqUx52DnAQ7J7OtlTJZ7QqN8190BPI6PvBUK6ZNcUnQyGjN/6hJUtIfNET3/Z9Gf8Y3qwUyJv6u7nO8NRscDDHnWh1OSPQ09Xu45oL1Tdiy9j9N376//gYajK/eVkM7zImWxxv+uDG94d96Cukz7sYDylXOTyKI56VM5Xylq27qy2Vl43TgNNBomMuLhRa70MLmZK0lpEJF18hXOg451hnm2xZnpqUYOcBh4SNzramnO+TDQSsOfTZUOLGbd4aJZmMJAsMKn2NIz8P+joShxjqMFqDygQDtJwpp5bKRCBwrJD3A9cIac++9//zTF3yIAiPM8oAAxu4OC7fTTUeCRDPKpNjlDrwLNe7sceFN7nC3knrhyI44lh+jkmw8+Nj/b3dmYxxwjVJRGs86288ok9x4a/+zs4e2OjDbeb/8hueFESYPP5BpMnGZBzsqFuylCf098i7LlCL5b25v6/HOsiXyMMxuMewQIbELJz+Te+/piuGnIlivJhcHM65njK11Btl1FLZCPT1dmfycgrwLCcXcti/Me8/xDHKpyU/AhLs/Ph437CHLQuQnCkeCU+SDUn2Ln2JRc1UVuzDwEQpXW3quy5Qf5Wwme6X3p6uTPdLHp6RqEjIkj5FvhFq1o3ZYObiHmVprrOe7k6jjFoqGwHyXHq6mGOitmDjcNw4Feeac6zWero7FApPQS8JdgqQIHpmCE5uL5sZzwh9M3fuZ/Mf9VdnjvaNWwUfFkKU7U2Z5Ax51ylqsPx3yXCsJVXOREF+xI3iaP9nxqmOFhnS8qdP6hKSNJiZ/azwkNVLwbPOoVnNlDSbrgol2OlwsoH+vkymZfPIWYMgNpOf1B3ZZrxnljl1M1NBpk+4SP1wNNd5OSiPlipCYHDQOUbWeEfCzFSp+TFacY4f15SZglR9ilXEMW5lcNAuDNkyxPKS8yrCM65PDo7bMjkeqYgmwU4FU2angf5eJ1h7yheDlPph4LoZgvcWUWrtWkkIYEyz8z/nCY+XmlvZ8w2FwWk4UBYt1YmAOyCtjeaifal5NsSxztYhsa5OiMflriTYRcKKaF9ygxqMaHuzcX0t1Y0AXi2haPqPCyWiZYU24rmMel2WZy0Zr6e6Yb7s7w7RxpZdMtGGX0Mc65YtGxX/JNijgI1+oO7O1sz42UDCUhjM+DnCuZvr/HqatGIUlVWphwwOerLXaN7NPirBhmst5zz5zfsTFaKsVOakLjeJhEyqQsJX2rcTjopbwa4Fse5UsmzqSortOGnqdV+1aV/7zdhq/VsQAfoc+3qts7Uh00INpCzl91AI3IfUyIAWrJJq2wGDSt1nZkMbeoEDRq+EHOuke6el3ucb4FrKBq82FhW+n8ELF4whVR2tDR7VcU6UkGPBq8ZWch0lmBWuk1x7TLr3a//G7r3u3+TarvW5EEBASeAY6Lferg43eB7CLAXRScZobTCGk10Y6Mtk6Uqwc9VE1a+HY3CB/IXOlvOl8YZ4yUJzvTcGMjzT5DtVT6QCN4it6elq86mOeY+CT7Iy2gZiU03meLLA2xr9vG7LCpRBm/MjIMHOj0/qrRnhbh8i+/nMNIBpxjt6mKg201/ZfM6Ha/HQ0Fetlmhq+Kt/x8FBH8bHixF8iCETrbTUD/VzD42rzWVcWc+b5+gT90+GZ0xpq1eyVj91irlDD5PjhHR3uC3z1wzjQIR8CufSUF80zkn0f2YrG+IYjcGM09F20ekopiDaNxGBSdOu+0152InQFL8SstPPjNhiDLs7mq2j9bzPLoRn5CSGyHz4H6Pbet73Y/8BhSSLB/0yPQKe9XV3etJQF6FMF+/YhBgYU7pVWuqNfUgwwhDTuNQiBNIg4I5Id4eRJNbptoyumQjPgmA7z875ft4QVHJsGniL3mfS1Gu/atOuVR920cgVcQCechByRNm95wsD8qCLwFC7CgEhIAQudwQmTb3mqzZVgn2580D3LwSEgBAQAmWOwKQp11wpwS7zSlLxhIAQEAJCQAhMmnz1FTblmq8KCSEgBISAEBACQqCMEZh0z1VfkWCXcQWpaEJACAgBISAEQMAFe/LVVwoNISAEhIAQEAJCoIwRmDT5qitsytUKiZdxHaloQkAICAEhIARs0pSrrrTJEmxRQQgIASEgBIRAWSMgwS7r6lHhhIAQEAJCQAhkEJBgiwlCQAgIASEgBCoAAQl2BVSSiigEhIAQEAJCQIItDggBISAEhIAQqAAEJNgVUEkqohAQAkJACAgBCbY4IASEgBAQAkKgAhCQYFdAJamIQkAICAEhIATKXrBffvllu/7664d9brjhBvvZz35mX3zxhQ0ODlZdLW7bts3uvvtua25uTry3Y8eO+Xa+tZQHAqqT8qiHy60UZ8+etRkzZtjNN9/sNvKmm26yJ5980g4fPjxuthGbzEfLpUegIgQ7To6uri5buXKl3XrrrbZnz55Lj9o4X1GCPc4Aj8PpJdjjAKpOmReBLVu2uA18/fXXraamxrCL58+ft+XLl9vtt99ubB+PRYI9HqimO2dFCja3hmf94osv2syZM9PdaQXtJcGuoMoaKqoEu/LqrJJL3NDQYFOmTLEPP/ww0ZNGvHt7e8flFiXY4wJrqpNWlWCfPn3aHn30UbvxxhuN0NDzzz+fDStD4Mcee8w981mzZvn24LmfO3fOnn76aV+XFG6/cOGCrVq1yu666y4PO9122202f/78YQ/EokWL7JlnnjHEdtq0afbjH//Y2G/FihXDHqju7m6bPXu2h7AoJ2X67LPPhoW4SyXY0fviWg899JAdP358GDHSlueBBx6wvXv32oMPPuj3dcstt9icOXOsv79/2Pku13/igk0dpsEsWkdJ3INXcAT+hoWuErpMuAZLuNbWrVude0SeKA/L/v37vfuIc8PHZcuWeUM3cD88F/AbTt95551G3dLlFOcKIsEzxbPF+aZOnepeXOiWim6HbzyLhGy1lB4BIoz33HOPNTY2pjp5Wh5w3rh9jF8gjWCnsZmcN2250vAzXs5q/L8iBRsy7Ny5041LMFoYF4wNFYuIIERz5851IaalGQzTHXfcYZs2bXIRHRgYcNGdPn26vfLKK34Mx+7evdveeOMN34YxWrx4sT8crOdcXOu+++6zV199NStYGFb6kQhPhZbtwYMHXeQPHTrk3OHcHMOxnIP/Cenfe++9bkyDkeWextqHjRDQcOA+WlparLOz01vjYHTkyJGiy/ODH/zAnnrqKWtvb/dja2trvYW/cePGanwuir6nJMEuhBk8ycc9CpFWsKPXgrM8I9Qz9Y0XRv1TdxhjBDku2NHngmMXLFjgDTyOY0EY4BNRLfhE2Xft2pV9TtgOj3nmePbgNs8ijRb211JaBIgs0lcdbE2+s4+WB9jHpKWQYKe1maMtVxI/k8pZjesqQrDjSWf8HzUwEITEizfffHOYN4uhwKvEmAbBfvbZZy1KRPaZPHlyzv4eDBHb48KECONxB5HFsMZbvOGaH3/8sXOHfTkmCHggFOfGIw/nKoVgUx7uPRhcrsV9v/DCC44VmBVTnqjXFsrNg1uNXRLh/or5BksaWdE6LIRZIe5x/bSC/cMf/tAOHDiQLXJ4JqjvKN/hA7yICzbPD8eEhfuAzydOnPBVlOP++++3tra2sMuwb7bT+IgKCL+feOKJbCRg2AH6Z0wIFBLNcPJieRC3j+E80e9C105jM4stVyF+RstXzb8rQrAhEWHA8IkaBSonCGOSsLMOAQz7YFiiC8RBUDGuL730ku8bFbm44QrHxsOSSYY1fk3KgfjHPY4kYz9WDzuXmEbLOdbyFHpwA1aXw3faOoxiVoh74Batr4BjnHtJDbzAvdBYDMfyHS1D2C/+XMTvJ3pM9FzhN9tzPX/xc4dj9D16BNJ62KF+R8uDpBIW4kIamznWcsX5mVTOalxXEYINQfIt+So/HBf2yWU86H9bu3at90MT2qZ/Fs8kDfm4RpJhjV9zrAIZ7iUNWcEsyfuNlnOs5Sn04IbyXg7f8TpJElFwSMIsF/fYP1pfAcdyFewkvoUy67u0CKxfv35ERC/pCsEGSbCT0Km8dVUh2LnCK9HqCMTNJdjRfRnfjYd75swZ77sjuYb+uuiSFBKPJwfFrxk/JpxvvELi8RBlPCQ+1vIkiU+4p8vteyyCHcUqyj3WkwREP3BHR0d2N65FRIhGAUtS4yBe1+HgXCHx+HMRvx+2x7tYwjn5LrQ9uq9+jx0BGnn5ssTJIaCvd6w8SCppoeeekHghmznWcsX5mVTOalxXFYJNxUQTGELSC5UKuQhBx8UzVCbEf+utt+zkyZNOcEhOsgyEg3g0Bkg64+EgUYztJFyRARtPOisk2ITySdziWM7BuTgn1yp1H3ZIOgtJQFwb4x9NOhtreQo9uAHjy+E7bkCSRBQcopgV4h7706giu3vDhg3W19fnvIFnZGnnE2yOJaERYafeqWuei3nz5hkJapSDJddzEb+fwCeSGEleQxBIqnz33Xf93PHtcJsMcZ6RU6dO+bX0p7QIMM6aBEIwZhw2kRds1urVqz1XJozDHgsPkkoc5XDS9rQ2cyzlivMzqRzVuK5qBJvKiQ7rCsNONm/e7MKYyzBhxJYsWeLhJY5JGv4URLzQsK5Cgk0ZKQeZuoTdw9AXwlvxhKVCfdgY4qQ+w+hxGNEwXC3pvsZankIPbjU+MLnuKW5A0gh2Gu5h/DDAJFlS32RqE5GhngsJNsfisTNEC24j/IRGGZpVrGBz31E+hecLUeA6LDRAwrAvysrzsnTp0mGJaLnw0/rRIZA009nDDz/sw6VCvYyFB0mlgjtJtod1IVKTxmaOpVzx5y2pnNW4ruwFuxpB1z0JASEgBISAECgWAQl2sYhpfyEgBISAEBACE4CABHsCQNclhYAQEAJCQAgUi4AEu1jEtL8QEAJCQAgIgQlAQII9AaDrkkJACAgBISAEikVAgl0sYtpfCAgBISAEhMAEICDBngDQdUkhIASEgBAQAsUiIMEuFjHtLwSEgBAQAkJgAhCQYE8A6LqkEBACQkAICIFiEZBgF4uY9hcCQkAICAEhMAEISLAnAHRdUggIASEgBIRAsQhIsItFTPsLASEgBISAEJgABCTYEwC6LikEhIAQEAJCoFgEJNjFIqb9hYAQEAJCQAhMAAIS7AkAXZcUAkJACAgBIVAsAhLsYhHT/kJACAgBISAEJgABCfYEgK5LCgEhIASEgBAoFgEJdrGIaX8hIASEgBAQAhOAgAR7AkDXJYWAEBACQkAIFIuABLtYxLS/EBACQkAICIEJQECCPQGg65JCQAgIASEgBIpFQIJdLGLaXwgIASEgBITABCAwafLVV9rkq786AZfWJYWAEBACQkAICIG0CEiw0yKl/YSAEBACQkAITCACEuwJBF+XFgJCQAgIASGQFgEX7CkKiafFS/sJASEgBISAEJgQBCTYEwK7LioEhIAQEAJCoDgEJNjF4aW9hYAQEAJCQAhMCAIS7AmBXRcVAkJACAgBIVAcAhLs4vDS3kJACAgBISAEJgQBCfaEwK6LCgEhIASEgBAoDoFJU66+0pQlXhxo2lsICAEhIASEwKVGICPYV115qa+r6wkBISAEhIAQEAJFIDBp8lVX2BQJdhGQaVchIASEgBAQApceAQn2pcdcVxQCQkAICAEhUDQCk6ZcdYXxAhAtQkAICAEhIASEQPkikBXs3q6O8i2lSiYEhIAQEAJC4DJHYNKUq68wMsXrTx68zKHQ7QsBISAEhIAQKF8EJk2+6itG4tmOle+VbylVMiEgBISAEBAClzkCk6Zc9RWjH/u9X95wmUOh2xcCQkAICAEhUL4IZAT76ivcy+5oaSjfkqpkQkAICAEhIAQuYwQmTb36Cst8rrSlrz9wGUOhWxcCQkAICAEhUL4IuIftgn0NU5Reaae/3FG+pVXJhIAQEAJCQAhcpghMmup92F/JetnP/uiPTEO8LlM26LaFgBAQAkKgLBFAlydNveo3jMSz4GVPvfpKe3XqX0u0y7LKVCghIASEgBC43BBArGfe+Y2MYA/zsq+50hPQnr3ljxQev9xYofsVAkJACAiBskLg9IEd9uvr/9Du/sOvBMH+DUO0QwKaT1c6NGUpiWjKHi+r+lNhhIAQEAJCoMoR6GhusCUzHrB7/ugKF+t7/vAr9v8Dzvm5jAJosz8AAAAASUVORK5CYII=;" vertex="1" parent="1">
          <mxGeometry x="90" y="210" width="570" height="327.87" as="geometry" />
        </mxCell>
        <mxCell id="aWLQsyK2phNN8O1XYwSf-2" value="ICICI ONLINE BANKING" style="text;html=1;strokeColor=none;fillColor=none;align=center;verticalAlign=middle;whiteSpace=wrap;rounded=0;" vertex="1" parent="1">
          <mxGeometry x="260" y="150" width="230" height="30" as="geometry" />
        </mxCell>
      </root>
    </mxGraphModel>
  </diagram>
</mxfile>
